<svg width="96" height="77" viewBox="0 0 96 77" fill="none" xmlns="http://www.w3.org/2000/svg">
<path d="M19.5307 25.8476L17.5098 22.1758C15.381 23.3415 13.3001 24.649 11.3234 26.0626L13.772 29.4655C15.6119 28.1498 17.5489 26.9322 19.5307 25.8476Z" fill="black"/>
<path d="M32.1352 20.7999L31.0508 16.7532C28.7044 17.3787 26.3708 18.1542 24.1153 19.0576L25.6805 22.9444C27.781 22.103 29.9518 21.382 32.1352 20.7999Z" fill="black"/>
<path d="M73.7731 21.1118C71.603 20.0304 69.3408 19.0687 67.0456 18.2527L65.6357 22.198C67.7715 22.9567 69.8769 23.8516 71.8958 24.8583L73.7731 21.1118Z" fill="black"/>
<path d="M91.2152 34.2263L88.1227 37.0582C89.6542 38.721 91.099 40.4941 92.4184 42.325L95.8311 39.8832C94.4142 37.9148 92.8617 36.011 91.2152 34.2263Z" fill="black"/>
<path d="M77.7882 28.2571C79.6719 29.5032 81.5016 30.8791 83.223 32.345L85.95 29.1596C84.1 27.5836 82.1344 26.105 80.1079 24.7662L77.7882 28.2571Z" fill="black"/>
<path d="M0.567871 35.9106L3.76046 38.6317C5.23037 36.9167 6.82158 35.2735 8.48805 33.7481L5.64825 30.6635C3.85699 32.3016 2.14829 34.0676 0.567871 35.9106Z" fill="black"/>
<path d="M34.3184 22.7272L36.4281 22.7284L38.9878 18.8578L47.2154 18.9151L43.5341 31.5701C43.5341 31.9393 43.8351 32.2401 44.2054 32.2401H47.5904L54.6608 19.1634L61.1505 19.3784C62.9976 19.3784 64.4923 17.9677 64.4923 16.2273C64.4936 14.4884 62.9964 13.0777 61.1521 13.0777L54.6142 13.2956L47.591 0.30494L44.2044 0.304306C43.8342 0.304939 43.5332 0.605773 43.5332 0.975006L47.189 13.5419L38.9424 13.6132L36.4265 9.81729L34.3168 9.81792C34.0361 9.81792 33.8093 10.0434 33.8093 10.3227V22.2237C33.8109 22.5017 34.0383 22.7287 34.3184 22.7272Z" fill="black"/>
<path d="M54.9663 38.6951C52.2173 38.0703 49.4083 37.7533 46.6127 37.7533C29.0331 37.7533 14.0228 49.7097 10.1113 66.8277C9.3616 70.1087 9.06978 73.4207 9.2022 76.6954H13.4055V76.6944C13.2706 73.7327 13.5259 70.7338 14.2041 67.7641C15.5788 68.1194 21.7242 69.8199 21.5289 71.7918C21.3644 73.4454 20.831 75.329 21.2749 76.6941H25.1381C25.6688 76.3087 26.1803 76.1251 26.6808 76.6501C26.6941 76.6647 26.7116 76.6796 26.7255 76.6941H57.2323C50.052 72.1332 49.0362 64.0756 49.0362 64.0756C48.5294 63.8558 49.979 58.1324 47.7215 57.4449C45.4606 56.7581 44.0355 57.3087 40.8337 55.8841C37.6278 54.4594 38.8281 52.4685 39.3546 47.7175C39.5794 45.6902 40.0967 43.8754 40.7559 42.4495C42.6605 42.1151 44.6169 41.9406 46.612 41.9406C49.0927 41.9406 51.5905 42.2218 54.034 42.7769C62.7004 44.7453 70.0792 49.9621 74.8109 57.4639C78.3779 63.1208 80.1155 69.566 79.9103 76.0991C79.636 76.298 79.3413 76.4962 79.0333 76.6954H84.0844C84.4175 69.1768 82.4688 61.7411 78.3655 55.2346C73.038 46.7853 64.7276 40.912 54.9663 38.6951Z" fill="black"/>
</svg>
