<svg width="44" height="50" viewBox="0 0 44 50" fill="none" xmlns="http://www.w3.org/2000/svg">
<path d="M27.8647 11.2108C30.9605 11.2108 33.4701 8.70115 33.4701 5.60538C33.4701 2.50962 30.9605 0 27.8647 0C24.769 0 22.2593 2.50962 22.2593 5.60538C22.2593 8.70115 24.769 11.2108 27.8647 11.2108Z" fill="#010002"/>
<path d="M41.8566 19.2782C36.8475 18.763 31.991 13.3426 30.7687 12.5919C30.0188 12.0505 29.132 11.696 28.2836 11.5637C28.2836 11.5637 27.6807 11.4386 27.0575 11.5073C26.461 11.5736 25.5541 11.6044 24.2262 12.5942C24.1301 12.654 23.4517 13.2446 23.2378 13.502C21.5851 15.2151 17.0054 20.2811 14.7258 26.0119C14.4036 26.826 14.608 27.7103 15.1692 28.3067L12.492 33.0771L8.72061 30.9585C8.27044 30.7051 7.69906 30.8633 7.44615 31.3141L0.307936 43.9274C0.0552255 44.3777 0.215114 44.9516 0.666397 45.2023L3.52146 46.8078C3.06694 47.6168 3.17633 48.6634 3.86295 49.3591C4.69088 50.2042 6.05109 50.2146 6.89477 49.3842C7.67896 48.6106 7.743 47.3823 7.07849 46.5354L10.9762 39.6971L13.7068 34.8313L17.0915 28.9639C17.8233 28.8475 18.4792 28.3596 18.774 27.6196C19.7388 25.1904 21.2328 22.8499 22.6756 20.9104L23.3556 28.7246C23.4344 29.6425 23.8168 30.4125 24.3836 31.0204C22.6306 34.1994 17.9129 42.8924 16.2097 45.8458C15.4467 47.1713 15.9002 48.8648 17.2249 49.6288C17.7222 49.9139 18.2726 50.0313 18.8056 49.9928C19.6921 49.9287 20.5309 49.4389 21.0076 48.6121C22.5944 45.8612 26.7332 37.5123 28.5486 34.374C30.0039 36.7925 32.4836 41.2431 35.6293 48.3503C36.0867 49.386 37.1002 49.9998 38.1641 49.9998C38.5403 49.9998 38.9195 49.9242 39.2847 49.7621C40.6826 49.1436 41.3152 47.5084 40.6951 46.1107C36.9855 37.7235 34.2541 33.0675 32.7407 30.6155C33.3389 29.8646 33.6991 28.9312 33.6049 27.8359L32.9613 20.4345C34.8255 21.923 37.2581 23.177 41.4116 23.6064C41.4887 23.6147 41.5635 23.6184 41.639 23.6184C42.7391 23.6184 43.685 22.786 43.8006 21.667C43.9216 20.4705 43.0529 19.4013 41.8566 19.2782ZM5.3476 48.7059C4.91632 48.7059 4.56654 48.3562 4.56654 47.9252C4.56654 47.4942 4.91632 47.1446 5.3476 47.1446C5.77838 47.1446 6.12825 47.4941 6.12825 47.9252C6.12805 48.3565 5.77848 48.7059 5.3476 48.7059Z" fill="#010002"/>
</svg>
