<svg width="56" height="49" viewBox="0 0 56 49" fill="none" xmlns="http://www.w3.org/2000/svg">
<path d="M17.166 13.2054L16.4024 11.814C15.5979 12.2557 14.8115 12.7512 14.0645 13.2868L14.9898 14.5764C15.6851 14.0778 16.4171 13.6164 17.166 13.2054Z" fill="white"/>
<path d="M21.9293 11.2926L21.5195 9.75909C20.6328 9.99609 19.7509 10.29 18.8986 10.6323L19.49 12.1052C20.2838 11.7864 21.1042 11.5131 21.9293 11.2926Z" fill="white"/>
<path d="M37.6643 11.4108C36.8442 11.001 35.9893 10.6365 35.122 10.3273L34.5892 11.8224C35.3963 12.1099 36.1919 12.449 36.9549 12.8305L37.6643 11.4108Z" fill="white"/>
<path d="M44.2557 16.3804L43.087 17.4536C43.6658 18.0837 44.2118 18.7556 44.7104 19.4494L46 18.5241C45.4646 17.7782 44.8779 17.0568 44.2557 16.3804Z" fill="white"/>
<path d="M39.1816 14.1185C39.8934 14.5907 40.5849 15.1121 41.2354 15.6676L42.2659 14.4605C41.5668 13.8632 40.824 13.303 40.0582 12.7956L39.1816 14.1185Z" fill="white"/>
<path d="M10 17.0187L11.2065 18.0499C11.762 17.4 12.3633 16.7773 12.993 16.1993L11.9199 15.0303C11.243 15.6511 10.5972 16.3203 10 17.0187Z" fill="white"/>
<path d="M22.7543 12.0229L23.5516 12.0234L24.5189 10.5566L27.6281 10.5783L26.237 15.3739C26.237 15.5138 26.3507 15.6278 26.4906 15.6278H27.7698L30.4418 10.6724L32.8942 10.7539C33.5922 10.7539 34.1571 10.2193 34.1571 9.55978C34.1576 8.90086 33.5918 8.36626 32.8948 8.36626L30.4241 8.44882L27.7701 3.52606L26.4903 3.52582C26.3504 3.52606 26.2366 3.64006 26.2366 3.77998L27.6181 8.54218L24.5018 8.56918L23.551 7.13074L22.7537 7.13098C22.6476 7.13098 22.562 7.21642 22.562 7.32226V11.8321C22.5626 11.9375 22.6485 12.0235 22.7543 12.0229Z" fill="white"/>
<path d="M30.5572 18.0739C29.5183 17.8372 28.4568 17.717 27.4003 17.717C20.757 17.717 15.0846 22.2479 13.6064 28.7347C13.3231 29.978 13.2128 31.2331 13.2629 32.474H14.8513V32.4737C14.8003 31.3513 14.8968 30.2149 15.1531 29.0896C15.6726 29.2242 17.995 29.8686 17.9212 30.6158C17.859 31.2425 17.6574 31.9562 17.8252 32.4736H19.2851C19.4856 32.3275 19.6789 32.2579 19.868 32.4569C19.8731 32.4624 19.8797 32.468 19.885 32.4736H31.4135C28.7 30.7452 28.3162 27.6918 28.3162 27.6918C28.1246 27.6085 28.6724 25.4396 27.8194 25.1791C26.965 24.9188 26.4264 25.1275 25.2164 24.5876C24.0049 24.0478 24.4585 23.2933 24.6575 21.493C24.7424 20.7247 24.9379 20.037 25.187 19.4966C25.9068 19.3699 26.6461 19.3038 27.4001 19.3038C28.3375 19.3038 29.2814 19.4104 30.2048 19.6207C33.4799 20.3666 36.2683 22.3435 38.0564 25.1863C39.4044 27.33 40.061 29.7724 39.9835 32.2481C39.8798 32.3234 39.7685 32.3986 39.6521 32.474H41.5609C41.6868 29.6249 40.9504 26.8072 39.3997 24.3415C37.3865 21.1397 34.246 18.914 30.5572 18.0739Z" fill="white"/>
<path d="M2.928 45.156C2.304 45.156 1.892 45.028 1.692 44.772C1.492 44.508 1.392 44.06 1.392 43.428V39.78L0.204 39.72L0.312 39.012L1.416 38.928L1.524 37.488L2.496 37.308V38.928H4.272L4.164 39.78H2.484V43.536C2.484 43.704 2.488 43.832 2.496 43.92C2.512 44 2.556 44.076 2.628 44.148C2.708 44.212 2.876 44.244 3.132 44.244C3.388 44.244 3.644 44.2 3.9 44.112L4.104 44.916C3.728 45.076 3.336 45.156 2.928 45.156ZM6.33741 45H5.25741V38.928H6.15741L6.27741 39.828C6.42141 39.588 6.65741 39.36 6.98541 39.144C7.32141 38.92 7.70141 38.808 8.12541 38.808C8.35741 38.808 8.53341 38.828 8.65341 38.868L8.43741 39.732C8.36541 39.724 8.26141 39.72 8.12541 39.72C7.25341 39.72 6.65741 40.036 6.33741 40.668V45ZM10.6733 45H9.58134V38.976L10.6733 38.868V45ZM9.36534 37.14C9.36534 36.94 9.43734 36.772 9.58134 36.636C9.72534 36.492 9.89734 36.42 10.0973 36.42C10.2973 36.42 10.4653 36.492 10.6013 36.636C10.7453 36.772 10.8173 36.94 10.8173 37.14C10.8173 37.34 10.7453 37.516 10.6013 37.668C10.4653 37.812 10.2973 37.884 10.0973 37.884C9.89734 37.884 9.72534 37.812 9.58134 37.668C9.43734 37.516 9.36534 37.34 9.36534 37.14ZM14.5207 44.244C15.5207 44.244 16.0207 43.448 16.0207 41.856C16.0207 40.432 15.6167 39.72 14.8087 39.72C14.3527 39.72 13.8727 39.896 13.3687 40.248V44.076C13.7687 44.188 14.1527 44.244 14.5207 44.244ZM13.2847 39.42C13.8127 39.012 14.4047 38.808 15.0607 38.808C15.7167 38.808 16.2287 39.08 16.5967 39.624C16.9647 40.168 17.1487 40.908 17.1487 41.844C17.1487 44.052 16.2687 45.156 14.5087 45.156C14.0927 45.156 13.7127 45.076 13.3687 44.916V47.568L12.2887 47.688V38.916H13.2007L13.2847 39.42ZM20.7316 44.244C21.7316 44.244 22.2316 43.448 22.2316 41.856C22.2316 40.432 21.8276 39.72 21.0196 39.72C20.5636 39.72 20.0836 39.896 19.5796 40.248V44.076C19.9796 44.188 20.3636 44.244 20.7316 44.244ZM19.4956 39.42C20.0236 39.012 20.6156 38.808 21.2716 38.808C21.9276 38.808 22.4396 39.08 22.8076 39.624C23.1756 40.168 23.3596 40.908 23.3596 41.844C23.3596 44.052 22.4796 45.156 20.7196 45.156C20.3036 45.156 19.9236 45.076 19.5796 44.916V47.568L18.4996 47.688V38.916H19.4116L19.4956 39.42ZM24.7225 36.6H25.8145V43.776C25.8145 44.088 25.9585 44.244 26.2465 44.244C26.4705 44.244 26.7065 44.204 26.9545 44.124L27.1345 44.916C26.8065 45.076 26.4025 45.156 25.9225 45.156C25.1225 45.156 24.7225 44.7 24.7225 43.788V36.6ZM29.194 45.156C28.674 45.156 28.258 45.004 27.946 44.7C27.642 44.396 27.49 43.988 27.49 43.476C27.49 43.14 27.562 42.856 27.706 42.624C27.85 42.392 28.038 42.22 28.27 42.108C28.686 41.908 29.122 41.808 29.578 41.808C30.034 41.808 30.458 41.828 30.85 41.868V40.932C30.85 40.468 30.77 40.152 30.61 39.984C30.458 39.808 30.162 39.72 29.722 39.72C29.282 39.72 28.758 39.828 28.15 40.044L27.898 39.288C28.13 39.144 28.434 39.028 28.81 38.94C29.194 38.852 29.526 38.808 29.806 38.808C30.582 38.808 31.13 38.976 31.45 39.312C31.77 39.648 31.93 40.212 31.93 41.004V43.92C31.93 44.2 32.026 44.34 32.218 44.34C32.346 44.34 32.522 44.304 32.746 44.232L32.926 44.904C32.654 45.08 32.302 45.168 31.87 45.168C31.438 45.168 31.126 44.964 30.934 44.556C30.758 44.724 30.51 44.868 30.19 44.988C29.878 45.1 29.546 45.156 29.194 45.156ZM29.422 44.304C29.926 44.304 30.402 44.16 30.85 43.872V42.48C30.658 42.448 30.346 42.432 29.914 42.432C28.978 42.432 28.506 42.744 28.498 43.368C28.498 43.992 28.806 44.304 29.422 44.304ZM38.3777 40.836V45H37.2977V40.896C37.2977 40.528 37.2497 40.24 37.1537 40.032C37.0577 39.824 36.8617 39.72 36.5657 39.72C36.2777 39.72 35.9617 39.8 35.6177 39.96C35.2817 40.112 35.0177 40.3 34.8257 40.524V45H33.7457V38.928H34.6457L34.7657 39.66C34.9897 39.444 35.2897 39.248 35.6657 39.072C36.0497 38.896 36.4177 38.808 36.7697 38.808C37.3697 38.808 37.7857 38.988 38.0177 39.348C38.2577 39.7 38.3777 40.196 38.3777 40.836ZM44.6003 40.836V45H43.5203V40.896C43.5203 40.528 43.4723 40.24 43.3763 40.032C43.2803 39.824 43.0843 39.72 42.7883 39.72C42.5003 39.72 42.1843 39.8 41.8403 39.96C41.5043 40.112 41.2403 40.3 41.0483 40.524V45H39.9683V38.928H40.8683L40.9883 39.66C41.2123 39.444 41.5123 39.248 41.8883 39.072C42.2723 38.896 42.6403 38.808 42.9923 38.808C43.5923 38.808 44.0083 38.988 44.2403 39.348C44.4803 39.7 44.6003 40.196 44.6003 40.836ZM48.555 45.156C47.659 45.156 46.991 44.852 46.551 44.244C46.119 43.628 45.903 42.86 45.903 41.94C45.903 41.012 46.135 40.26 46.599 39.684C47.063 39.1 47.699 38.808 48.507 38.808C49.187 38.808 49.703 39 50.055 39.384C50.415 39.76 50.595 40.26 50.595 40.884C50.595 41.164 50.535 41.524 50.415 41.964H46.887C46.903 42.644 47.051 43.196 47.331 43.62C47.611 44.044 48.027 44.256 48.579 44.256C49.139 44.256 49.667 44.144 50.163 43.92L50.439 44.664C49.863 44.992 49.235 45.156 48.555 45.156ZM49.611 41.088C49.611 40.656 49.523 40.316 49.347 40.068C49.171 39.82 48.927 39.696 48.615 39.696C48.303 39.696 48.043 39.752 47.835 39.864C47.635 39.968 47.479 40.104 47.367 40.272C47.175 40.592 47.055 40.888 47.007 41.16L49.611 41.184V41.088ZM52.978 45H51.898V38.928H52.798L52.918 39.828C53.062 39.588 53.298 39.36 53.626 39.144C53.962 38.92 54.342 38.808 54.766 38.808C54.998 38.808 55.174 38.828 55.294 38.868L55.078 39.732C55.006 39.724 54.902 39.72 54.766 39.72C53.894 39.72 53.298 40.036 52.978 40.668V45Z" fill="white"/>
</svg>
